<mxfile host="app.diagrams.net" modified="2023-04-20T09:10:36.071Z" agent="Mozilla/5.0 (Windows NT 10.0; Win64; x64) AppleWebKit/537.36 (KHTML, like Gecko) Chrome/112.0.0.0 Safari/537.36" etag="mAInjFkZGugdYP6jm6mQ" version="21.2.1" type="device">
  <diagram name="페이지-1" id="0uVqydjfLqIwJuYwxdiI">
    <mxGraphModel dx="2257" dy="943" grid="1" gridSize="10" guides="1" tooltips="1" connect="1" arrows="1" fold="1" page="1" pageScale="1" pageWidth="827" pageHeight="1169" math="0" shadow="0">
      <root>
        <mxCell id="0" />
        <mxCell id="1" parent="0" />
        <mxCell id="VO7UTeB8Y2SJ1uog17a9-1" value="회원" style="whiteSpace=wrap;html=1;aspect=fixed;labelBackgroundColor=#FFFFFF;labelBorderColor=none;fontSize=30;fontColor=#66FF66;" vertex="1" parent="1">
          <mxGeometry x="354" y="360" width="120" height="120" as="geometry" />
        </mxCell>
        <mxCell id="VO7UTeB8Y2SJ1uog17a9-2" value="&lt;font color=&quot;#66ff66&quot;&gt;게시글&lt;/font&gt;" style="whiteSpace=wrap;html=1;aspect=fixed;labelBackgroundColor=#FFFFFF;labelBorderColor=none;fontSize=30;fontColor=#FFFFFF;" vertex="1" parent="1">
          <mxGeometry x="650" y="700" width="120" height="120" as="geometry" />
        </mxCell>
        <mxCell id="VO7UTeB8Y2SJ1uog17a9-3" value="&lt;font color=&quot;#66ff66&quot;&gt;댓글&lt;/font&gt;" style="whiteSpace=wrap;html=1;aspect=fixed;labelBackgroundColor=#FFFFFF;labelBorderColor=none;fontSize=30;fontColor=#FFFFFF;" vertex="1" parent="1">
          <mxGeometry x="159.99999999999997" y="730" width="120" height="120" as="geometry" />
        </mxCell>
        <mxCell id="VO7UTeB8Y2SJ1uog17a9-7" style="rounded=0;orthogonalLoop=1;jettySize=auto;html=1;exitX=0.5;exitY=1;exitDx=0;exitDy=0;endArrow=none;endFill=0;" edge="1" parent="1" source="VO7UTeB8Y2SJ1uog17a9-4" target="VO7UTeB8Y2SJ1uog17a9-1">
          <mxGeometry relative="1" as="geometry" />
        </mxCell>
        <mxCell id="VO7UTeB8Y2SJ1uog17a9-4" value="아이디" style="ellipse;whiteSpace=wrap;html=1;aspect=fixed;labelBackgroundColor=default;fontSize=20;fontStyle=4" vertex="1" parent="1">
          <mxGeometry x="374" y="200" width="80" height="80" as="geometry" />
        </mxCell>
        <mxCell id="VO7UTeB8Y2SJ1uog17a9-8" style="rounded=0;orthogonalLoop=1;jettySize=auto;html=1;exitX=0.5;exitY=1;exitDx=0;exitDy=0;entryX=0.25;entryY=0.083;entryDx=0;entryDy=0;entryPerimeter=0;" edge="1" parent="1" source="VO7UTeB8Y2SJ1uog17a9-5" target="VO7UTeB8Y2SJ1uog17a9-1">
          <mxGeometry relative="1" as="geometry" />
        </mxCell>
        <mxCell id="VO7UTeB8Y2SJ1uog17a9-5" value="&lt;font style=&quot;font-size: 19px;&quot;&gt;비밀번호&lt;/font&gt;" style="ellipse;whiteSpace=wrap;html=1;aspect=fixed;labelBackgroundColor=default;fontSize=20;" vertex="1" parent="1">
          <mxGeometry x="280" y="200" width="80" height="80" as="geometry" />
        </mxCell>
        <mxCell id="VO7UTeB8Y2SJ1uog17a9-11" style="orthogonalLoop=1;jettySize=auto;html=1;exitX=0;exitY=1;exitDx=0;exitDy=0;entryX=0.75;entryY=0;entryDx=0;entryDy=0;rounded=0;endArrow=none;endFill=0;" edge="1" parent="1" source="VO7UTeB8Y2SJ1uog17a9-6" target="VO7UTeB8Y2SJ1uog17a9-1">
          <mxGeometry relative="1" as="geometry" />
        </mxCell>
        <mxCell id="VO7UTeB8Y2SJ1uog17a9-6" value="정보" style="ellipse;whiteSpace=wrap;html=1;aspect=fixed;labelBackgroundColor=default;fontSize=20;" vertex="1" parent="1">
          <mxGeometry x="480" y="200" width="80" height="80" as="geometry" />
        </mxCell>
        <mxCell id="VO7UTeB8Y2SJ1uog17a9-16" style="rounded=0;orthogonalLoop=1;jettySize=auto;html=1;exitX=0.5;exitY=0;exitDx=0;exitDy=0;entryX=0.25;entryY=1;entryDx=0;entryDy=0;endArrow=none;endFill=0;" edge="1" parent="1" source="VO7UTeB8Y2SJ1uog17a9-12" target="VO7UTeB8Y2SJ1uog17a9-2">
          <mxGeometry relative="1" as="geometry" />
        </mxCell>
        <mxCell id="VO7UTeB8Y2SJ1uog17a9-12" value="작성자" style="ellipse;whiteSpace=wrap;html=1;aspect=fixed;labelBackgroundColor=default;fontSize=20;" vertex="1" parent="1">
          <mxGeometry x="600" y="920" width="80" height="80" as="geometry" />
        </mxCell>
        <mxCell id="VO7UTeB8Y2SJ1uog17a9-17" style="rounded=0;orthogonalLoop=1;jettySize=auto;html=1;exitX=0.5;exitY=0;exitDx=0;exitDy=0;entryX=0.5;entryY=1;entryDx=0;entryDy=0;endArrow=none;endFill=0;" edge="1" parent="1" source="VO7UTeB8Y2SJ1uog17a9-13" target="VO7UTeB8Y2SJ1uog17a9-2">
          <mxGeometry relative="1" as="geometry" />
        </mxCell>
        <mxCell id="VO7UTeB8Y2SJ1uog17a9-13" value="&lt;u&gt;글 번호&lt;/u&gt;" style="ellipse;whiteSpace=wrap;html=1;aspect=fixed;labelBackgroundColor=default;fontSize=20;" vertex="1" parent="1">
          <mxGeometry x="720" y="920" width="80" height="80" as="geometry" />
        </mxCell>
        <mxCell id="VO7UTeB8Y2SJ1uog17a9-15" style="rounded=0;orthogonalLoop=1;jettySize=auto;html=1;exitX=1;exitY=0.5;exitDx=0;exitDy=0;endArrow=none;endFill=0;" edge="1" parent="1" source="VO7UTeB8Y2SJ1uog17a9-14" target="VO7UTeB8Y2SJ1uog17a9-2">
          <mxGeometry relative="1" as="geometry" />
        </mxCell>
        <mxCell id="VO7UTeB8Y2SJ1uog17a9-14" value="내용" style="ellipse;whiteSpace=wrap;html=1;aspect=fixed;labelBackgroundColor=default;fontSize=20;" vertex="1" parent="1">
          <mxGeometry x="840" y="720" width="80" height="80" as="geometry" />
        </mxCell>
        <mxCell id="VO7UTeB8Y2SJ1uog17a9-19" style="rounded=0;orthogonalLoop=1;jettySize=auto;html=1;exitX=0;exitY=1;exitDx=0;exitDy=0;entryX=1;entryY=0;entryDx=0;entryDy=0;endArrow=none;endFill=0;" edge="1" parent="1" source="VO7UTeB8Y2SJ1uog17a9-18" target="VO7UTeB8Y2SJ1uog17a9-2">
          <mxGeometry relative="1" as="geometry" />
        </mxCell>
        <mxCell id="VO7UTeB8Y2SJ1uog17a9-18" value="제목" style="ellipse;whiteSpace=wrap;html=1;aspect=fixed;labelBackgroundColor=default;fontSize=20;" vertex="1" parent="1">
          <mxGeometry x="800" y="600" width="80" height="80" as="geometry" />
        </mxCell>
        <mxCell id="VO7UTeB8Y2SJ1uog17a9-24" style="rounded=0;orthogonalLoop=1;jettySize=auto;html=1;exitX=1;exitY=0.5;exitDx=0;exitDy=0;entryX=0;entryY=0.5;entryDx=0;entryDy=0;endArrow=none;endFill=0;" edge="1" parent="1" source="VO7UTeB8Y2SJ1uog17a9-20" target="VO7UTeB8Y2SJ1uog17a9-3">
          <mxGeometry relative="1" as="geometry" />
        </mxCell>
        <mxCell id="VO7UTeB8Y2SJ1uog17a9-20" value="작성자" style="ellipse;whiteSpace=wrap;html=1;aspect=fixed;labelBackgroundColor=default;fontSize=20;" vertex="1" parent="1">
          <mxGeometry x="19.99999999999997" y="750" width="80" height="80" as="geometry" />
        </mxCell>
        <mxCell id="VO7UTeB8Y2SJ1uog17a9-25" style="rounded=0;orthogonalLoop=1;jettySize=auto;html=1;exitX=0;exitY=0.5;exitDx=0;exitDy=0;entryX=0;entryY=1;entryDx=0;entryDy=0;endArrow=none;endFill=0;" edge="1" parent="1" source="VO7UTeB8Y2SJ1uog17a9-21" target="VO7UTeB8Y2SJ1uog17a9-3">
          <mxGeometry relative="1" as="geometry" />
        </mxCell>
        <mxCell id="VO7UTeB8Y2SJ1uog17a9-21" value="내용" style="ellipse;whiteSpace=wrap;html=1;aspect=fixed;labelBackgroundColor=default;fontSize=20;" vertex="1" parent="1">
          <mxGeometry x="49.99999999999997" y="870" width="80" height="80" as="geometry" />
        </mxCell>
        <mxCell id="VO7UTeB8Y2SJ1uog17a9-26" style="rounded=0;orthogonalLoop=1;jettySize=auto;html=1;exitX=0.5;exitY=0;exitDx=0;exitDy=0;entryX=0.5;entryY=1;entryDx=0;entryDy=0;endArrow=none;endFill=0;" edge="1" parent="1" source="VO7UTeB8Y2SJ1uog17a9-23" target="VO7UTeB8Y2SJ1uog17a9-3">
          <mxGeometry relative="1" as="geometry">
            <mxPoint x="269.99572875253784" y="1188.2842712474621" as="sourcePoint" />
          </mxGeometry>
        </mxCell>
        <mxCell id="VO7UTeB8Y2SJ1uog17a9-22" value="댓글 번호" style="ellipse;whiteSpace=wrap;html=1;aspect=fixed;labelBackgroundColor=default;fontSize=18;fontStyle=4" vertex="1" parent="1">
          <mxGeometry x="274" y="920" width="80" height="80" as="geometry" />
        </mxCell>
        <mxCell id="VO7UTeB8Y2SJ1uog17a9-27" style="rounded=0;orthogonalLoop=1;jettySize=auto;html=1;exitX=0;exitY=0;exitDx=0;exitDy=0;entryX=0.75;entryY=1;entryDx=0;entryDy=0;endArrow=none;endFill=0;" edge="1" parent="1" source="VO7UTeB8Y2SJ1uog17a9-22" target="VO7UTeB8Y2SJ1uog17a9-3">
          <mxGeometry relative="1" as="geometry">
            <mxPoint x="258.28" y="1010" as="sourcePoint" />
          </mxGeometry>
        </mxCell>
        <mxCell id="VO7UTeB8Y2SJ1uog17a9-23" value="글 번호" style="ellipse;whiteSpace=wrap;html=1;aspect=fixed;labelBackgroundColor=default;fontSize=20;" vertex="1" parent="1">
          <mxGeometry x="160" y="930" width="80" height="80" as="geometry" />
        </mxCell>
        <mxCell id="VO7UTeB8Y2SJ1uog17a9-30" style="rounded=0;orthogonalLoop=1;jettySize=auto;html=1;exitX=0;exitY=0.5;exitDx=0;exitDy=0;endArrow=ERone;endFill=0;startArrow=none;startFill=0;entryX=1;entryY=0.75;entryDx=0;entryDy=0;" edge="1" parent="1" source="VO7UTeB8Y2SJ1uog17a9-28" target="VO7UTeB8Y2SJ1uog17a9-1">
          <mxGeometry relative="1" as="geometry" />
        </mxCell>
        <mxCell id="VO7UTeB8Y2SJ1uog17a9-31" style="rounded=0;orthogonalLoop=1;jettySize=auto;html=1;exitX=0.5;exitY=1;exitDx=0;exitDy=0;endArrow=ERzeroToMany;endFill=0;entryX=0.25;entryY=0;entryDx=0;entryDy=0;" edge="1" parent="1" source="VO7UTeB8Y2SJ1uog17a9-28" target="VO7UTeB8Y2SJ1uog17a9-2">
          <mxGeometry relative="1" as="geometry">
            <mxPoint x="680" y="630" as="targetPoint" />
          </mxGeometry>
        </mxCell>
        <mxCell id="VO7UTeB8Y2SJ1uog17a9-28" value="작성" style="rhombus;whiteSpace=wrap;html=1;labelBackgroundColor=default;fontSize=20;" vertex="1" parent="1">
          <mxGeometry x="610" y="410" width="140" height="80" as="geometry" />
        </mxCell>
        <mxCell id="VO7UTeB8Y2SJ1uog17a9-34" style="rounded=0;orthogonalLoop=1;jettySize=auto;html=1;exitX=0.5;exitY=0;exitDx=0;exitDy=0;endArrow=ERone;endFill=0;" edge="1" parent="1" source="VO7UTeB8Y2SJ1uog17a9-32">
          <mxGeometry relative="1" as="geometry">
            <mxPoint x="350" y="450" as="targetPoint" />
          </mxGeometry>
        </mxCell>
        <mxCell id="VO7UTeB8Y2SJ1uog17a9-35" style="rounded=0;orthogonalLoop=1;jettySize=auto;html=1;exitX=0.5;exitY=1;exitDx=0;exitDy=0;endArrow=ERzeroToMany;endFill=0;" edge="1" parent="1" source="VO7UTeB8Y2SJ1uog17a9-32" target="VO7UTeB8Y2SJ1uog17a9-3">
          <mxGeometry relative="1" as="geometry" />
        </mxCell>
        <mxCell id="VO7UTeB8Y2SJ1uog17a9-32" value="작성" style="rhombus;whiteSpace=wrap;html=1;labelBackgroundColor=default;fontSize=20;" vertex="1" parent="1">
          <mxGeometry x="150" y="520" width="140" height="80" as="geometry" />
        </mxCell>
        <mxCell id="VO7UTeB8Y2SJ1uog17a9-36" style="rounded=0;orthogonalLoop=1;jettySize=auto;html=1;entryX=1;entryY=0.25;entryDx=0;entryDy=0;endArrow=ERzeroToMany;endFill=0;exitX=0;exitY=0.5;exitDx=0;exitDy=0;" edge="1" parent="1" source="VO7UTeB8Y2SJ1uog17a9-33" target="VO7UTeB8Y2SJ1uog17a9-3">
          <mxGeometry relative="1" as="geometry">
            <mxPoint x="410" y="740" as="sourcePoint" />
          </mxGeometry>
        </mxCell>
        <mxCell id="VO7UTeB8Y2SJ1uog17a9-37" style="rounded=0;orthogonalLoop=1;jettySize=auto;html=1;endArrow=ERone;endFill=0;exitX=1;exitY=0.5;exitDx=0;exitDy=0;" edge="1" parent="1" source="VO7UTeB8Y2SJ1uog17a9-33" target="VO7UTeB8Y2SJ1uog17a9-2">
          <mxGeometry relative="1" as="geometry">
            <mxPoint x="560" y="730" as="sourcePoint" />
          </mxGeometry>
        </mxCell>
        <mxCell id="VO7UTeB8Y2SJ1uog17a9-33" value="포함" style="rhombus;whiteSpace=wrap;html=1;labelBackgroundColor=default;fontSize=20;" vertex="1" parent="1">
          <mxGeometry x="400" y="720" width="140" height="80" as="geometry" />
        </mxCell>
        <mxCell id="VO7UTeB8Y2SJ1uog17a9-47" style="rounded=0;orthogonalLoop=1;jettySize=auto;html=1;exitX=1;exitY=0.5;exitDx=0;exitDy=0;endArrow=ERone;endFill=0;startArrow=ERzeroToOne;startFill=0;" edge="1" parent="1" source="VO7UTeB8Y2SJ1uog17a9-40" target="VO7UTeB8Y2SJ1uog17a9-1">
          <mxGeometry relative="1" as="geometry" />
        </mxCell>
        <mxCell id="VO7UTeB8Y2SJ1uog17a9-40" value="관리자" style="whiteSpace=wrap;html=1;aspect=fixed;labelBackgroundColor=#FFFFFF;labelBorderColor=none;fontSize=30;fontColor=#66FF66;" vertex="1" parent="1">
          <mxGeometry x="-120" y="360" width="120" height="120" as="geometry" />
        </mxCell>
        <mxCell id="VO7UTeB8Y2SJ1uog17a9-43" style="rounded=0;orthogonalLoop=1;jettySize=auto;html=1;exitX=0.5;exitY=1;exitDx=0;exitDy=0;entryX=0.5;entryY=0;entryDx=0;entryDy=0;endArrow=none;endFill=0;" edge="1" parent="1" source="VO7UTeB8Y2SJ1uog17a9-41" target="VO7UTeB8Y2SJ1uog17a9-40">
          <mxGeometry relative="1" as="geometry" />
        </mxCell>
        <mxCell id="VO7UTeB8Y2SJ1uog17a9-41" value="&lt;font style=&quot;font-size: 19px;&quot;&gt;아이디&lt;/font&gt;" style="ellipse;whiteSpace=wrap;html=1;aspect=fixed;labelBackgroundColor=default;fontSize=20;" vertex="1" parent="1">
          <mxGeometry x="-100" y="220" width="80" height="80" as="geometry" />
        </mxCell>
        <mxCell id="VO7UTeB8Y2SJ1uog17a9-44" style="rounded=0;orthogonalLoop=1;jettySize=auto;html=1;exitX=0.5;exitY=0;exitDx=0;exitDy=0;entryX=0.5;entryY=1;entryDx=0;entryDy=0;endArrow=none;endFill=0;" edge="1" parent="1" source="VO7UTeB8Y2SJ1uog17a9-42" target="VO7UTeB8Y2SJ1uog17a9-40">
          <mxGeometry relative="1" as="geometry" />
        </mxCell>
        <mxCell id="VO7UTeB8Y2SJ1uog17a9-42" value="&lt;span style=&quot;font-size: 19px;&quot;&gt;비밀번호&lt;/span&gt;" style="ellipse;whiteSpace=wrap;html=1;aspect=fixed;labelBackgroundColor=default;fontSize=20;" vertex="1" parent="1">
          <mxGeometry x="-100" y="545" width="80" height="80" as="geometry" />
        </mxCell>
        <mxCell id="VO7UTeB8Y2SJ1uog17a9-46" style="rounded=0;orthogonalLoop=1;jettySize=auto;html=1;exitX=0;exitY=1;exitDx=0;exitDy=0;entryX=1;entryY=0;entryDx=0;entryDy=0;endArrow=none;endFill=0;" edge="1" parent="1" source="VO7UTeB8Y2SJ1uog17a9-45" target="VO7UTeB8Y2SJ1uog17a9-40">
          <mxGeometry relative="1" as="geometry" />
        </mxCell>
        <mxCell id="VO7UTeB8Y2SJ1uog17a9-45" value="&lt;font style=&quot;font-size: 19px;&quot;&gt;정보&lt;/font&gt;" style="ellipse;whiteSpace=wrap;html=1;aspect=fixed;labelBackgroundColor=default;fontSize=20;" vertex="1" parent="1">
          <mxGeometry x="40" y="240" width="80" height="80" as="geometry" />
        </mxCell>
      </root>
    </mxGraphModel>
  </diagram>
</mxfile>
